Crispy Extended-Extrabold.ufo
<glyph name="exclam" format="2">
  <advance width="1145"/>
  <unicode hex="0021"/>
  <outline>
    <contour>
      <point x="194" y="498" type="line" identifier="1m237t4hyw"/>
      <point x="864" y="498" type="line" identifier="S4rO5KuHiL"/>
      <point x="933" y="595" type="line"/>
      <point x="933" y="1600" type="line" identifier="zfocDyDTCM"/>
      <point x="264" y="1600" type="line" identifier="v7N4yg5XNk"/>
      <point x="194" y="1483" type="line"/>
    </contour>
    <component base="period" xOffset="80"/>
  </outline>
</glyph>
<glyph name="comma" format="2">
  <advance width="1590"/>
  <unicode hex="002C"/>
  <outline>
    <contour>
      <point x="1053" y="-381" type="line"/>
      <point x="1381" y="1" type="line"/>
      <point x="1381" y="410" type="line"/>
      <point x="794" y="410" type="line"/>
      <point x="686" y="275" type="line"/>
      <point x="686" y="0" type="line"/>
      <point x="996" y="0" type="line"/>
      <point x="996" y="-381" type="line"/>
    </contour>
  </outline>
</glyph>
<glyph name="period" format="2">
  <advance width="1100"/>
  <unicode hex="002E"/>
  <outline>
    <contour>
      <point x="842" y="0" type="line" identifier="1m237t4hyw"/>
      <point x="932" y="88" type="line" identifier="v7N4yg5XNk"/>
      <point x="932" y="413" type="line"/>
      <point x="286" y="413" type="line" identifier="zfocDyDTCM"/>
      <point x="196" y="325" type="line"/>
      <point x="196" y="0" type="line" identifier="S4rO5KuHiL"/>
    </contour>
  </outline>
</glyph>
<glyph name="three" format="2">
  <advance width="4933"/>
  <unicode hex="0033"/>
  <outline>
    <contour>
      <point x="270" y="0" type="line" identifier="O9abUc1nmN"/>
      <point x="4555" y="0" type="line" identifier="kMJYMTfXCq"/>
      <point x="4555" y="977" type="line" identifier="su2XmdS8e8"/>
      <point x="4175" y="977" type="line" identifier="JQaOzDQqlF"/>
      <point x="4175" y="1600" type="line" identifier="xg8x2Ki40p"/>
      <point x="324" y="1600" type="line" identifier="pE1XSRiy68"/>
      <point x="324" y="1217" type="line" identifier="7ogBYufWpl"/>
      <point x="3479" y="1217" type="line" identifier="RHLvSX2Jv6"/>
      <point x="3479" y="980" type="line" identifier="iic1IBkDqp"/>
      <point x="707" y="980" type="line" identifier="lRLJEhXMlO"/>
      <point x="707" y="617" type="line" identifier="8aKgEELrVU"/>
      <point x="3859" y="617" type="line" identifier="Dm8zjmbhNr"/>
      <point x="3859" y="383" type="line" identifier="xv9CFHiFgB"/>
      <point x="270" y="383" type="line" identifier="YajKQV3MHP"/>
    </contour>
  </outline>
</glyph>
<glyph name="four" format="2">
  <advance width="4762"/>
  <unicode hex="0034"/>
  <outline>
    <contour>
      <point x="3437" y="0" type="line"/>
      <point x="4132" y="0" type="line"/>
      <point x="4132" y="557" type="line"/>
      <point x="4496" y="557" type="line"/>
      <point x="4496" y="963" type="line"/>
      <point x="4132" y="963" type="line"/>
      <point x="4132" y="1600" type="line"/>
      <point x="3437" y="1600" type="line"/>
      <point x="3437" y="963" type="line"/>
      <point x="960" y="963" type="line"/>
      <point x="960" y="1071" type="line"/>
      <point x="961" y="1566" type="line"/>
      <point x="266" y="1566" type="line"/>
      <point x="266" y="1070" type="line"/>
      <point x="266" y="557" type="line"/>
      <point x="3437" y="557" type="line"/>
    </contour>
  </outline>
</glyph>
<glyph name="eight" format="2">
  <advance width="4678"/>
  <unicode hex="0038"/>
  <outline>
    <contour>
      <point x="3487" y="612" type="line"/>
      <point x="3823" y="434" type="line"/>
      <point x="3823" y="377" type="line"/>
      <point x="854" y="377" type="line"/>
      <point x="854" y="422" type="line"/>
      <point x="1192" y="612" type="line"/>
    </contour>
    <contour>
      <point x="4176" y="799" type="line"/>
      <point x="4176" y="801" type="line"/>
      <point x="4515" y="1007" type="line"/>
      <point x="4515" y="1600" type="line"/>
      <point x="163" y="1600" type="line"/>
      <point x="163" y="1007" type="line"/>
      <point x="502" y="801" type="line"/>
      <point x="502" y="799" type="line"/>
      <point x="160" y="590" type="line"/>
      <point x="160" y="0" type="line"/>
      <point x="4518" y="0" type="line"/>
      <point x="4518" y="590" type="line"/>
    </contour>
    <contour>
      <point x="1192" y="988" type="line"/>
      <point x="858" y="1169" type="line"/>
      <point x="858" y="1223" type="line"/>
      <point x="3820" y="1223" type="line"/>
      <point x="3819" y="1169" type="line"/>
      <point x="3487" y="988" type="line"/>
    </contour>
  </outline>
</glyph>
<glyph name="nine" format="2">
  <advance width="4436"/>
  <unicode hex="0039"/>
  <outline>
    <contour>
      <point x="313" y="0" type="line" identifier="oGvEEuxnYv"/>
      <point x="4513" y="0" type="line" identifier="xR3pEHbMJx"/>
      <point x="4513" y="1600" type="line" identifier="uiw6aBUf4P"/>
      <point x="312" y="1600" type="line" identifier="jtYkxiUX6G"/>
      <point x="312" y="618" type="line" identifier="2G5L37c87I"/>
      <point x="3818" y="618" type="line"/>
      <point x="3818" y="383" type="line"/>
      <point x="313" y="383" type="line"/>
    </contour>
    <contour>
      <point x="1007" y="982" type="line"/>
      <point x="1007" y="1217" type="line"/>
      <point x="3818" y="1217" type="line"/>
      <point x="3818" y="982" type="line"/>
    </contour>
  </outline>
</glyph>
<glyph name="A" format="2">
  <advance width="4597"/>
  <unicode hex="0041"/>
  <outline>
    <contour>
      <point x="158" y="0" type="line" smooth="yes" identifier="jFq8ta4UUc"/>
      <point x="853" y="0" type="line" smooth="yes" identifier="dQz4RxYhG4"/>
      <point x="853" y="403" type="line" smooth="yes" identifier="viYRWe5UN7"/>
      <point x="3605" y="403" type="line" smooth="yes" identifier="QVexAlbAcl"/>
      <point x="3605" y="0" type="line" smooth="yes" identifier="ZgsCdxNJRW"/>
      <point x="4300" y="0" type="line" smooth="yes" identifier="kpn4Kw9J0C"/>
      <point x="4300" y="1600" type="line" smooth="yes" identifier="OBZ5Ayed7M"/>
      <point x="617" y="1600" type="line" smooth="yes" identifier="iDT0uyhKrn"/>
      <point x="158" y="1112" type="line" smooth="yes" identifier="dqVr87m3uJ"/>
    </contour>
    <contour>
      <point x="853" y="809" type="line" smooth="yes" identifier="IIRC9Wy7kQ"/>
      <point x="853" y="992" type="line" smooth="yes" identifier="VufvPdJ075"/>
      <point x="1050" y="1194" type="line" smooth="yes" identifier="FsYtJ2vFnp"/>
      <point x="3605" y="1194" type="line" smooth="yes" identifier="tUsW8L7b0y"/>
      <point x="3605" y="809" type="line" smooth="yes" identifier="eTe9B4y76W"/>
    </contour>
  </outline>
</glyph>
<glyph name="B" format="2">
  <advance width="4724"/>
  <unicode hex="0042"/>
  <outline>
    <contour>
      <point x="297" y="0" type="line" identifier="hvY9r8RmLr"/>
      <point x="4122" y="0" type="line" identifier="9QFpw7nfq7"/>
      <point x="4565" y="504" type="line"/>
      <point x="4565" y="987" type="line" identifier="543PerILpr"/>
      <point x="4175" y="987" type="line" identifier="zhomauHW30"/>
      <point x="4175" y="1600" type="line" identifier="FaP204GrdB"/>
      <point x="297" y="1600" type="line" identifier="JEev70GAj6"/>
    </contour>
    <contour>
      <point x="992" y="383" type="line" identifier="jaMSiLrCua"/>
      <point x="992" y="618" type="line" identifier="XSrxNd2axx"/>
      <point x="3870" y="618" type="line" identifier="lsRGatjQja"/>
      <point x="3870" y="640" type="line"/>
      <point x="3623" y="383" type="line" identifier="xhlDJ3CjD5"/>
    </contour>
    <contour>
      <point x="992" y="982" type="line" identifier="By7dfMihfe"/>
      <point x="992" y="1217" type="line" identifier="1p5hKrurVy"/>
      <point x="3484" y="1217" type="line" identifier="Qby8aMtF2X"/>
      <point x="3484" y="982" type="line" identifier="xpxyvIzPoc"/>
    </contour>
  </outline>
</glyph>
<glyph name="C" format="2">
  <advance width="4193"/>
  <unicode hex="0043"/>
  <outline>
    <contour>
      <point x="271" y="0" type="line" identifier="7lPhzTnk2Z"/>
      <point x="3992" y="0" type="line" identifier="qJVLZGnkwh"/>
      <point x="3992" y="406" type="line" identifier="Y750RHTvDj"/>
      <point x="966" y="406" type="line" identifier="L2LsGnXiZ2"/>
      <point x="966" y="940" type="line" identifier="sUWsr03vF4"/>
      <point x="1183" y="1194" type="line" identifier="dbOUe6OhxL"/>
      <point x="3991" y="1194" type="line" identifier="5BjRbcud80"/>
      <point x="3991" y="1600" type="line" identifier="9eJelv8BOw"/>
      <point x="714" y="1600" type="line" identifier="lfZev3ICaC"/>
      <point x="271" y="1081" type="line" identifier="V1EWIdPahq"/>
    </contour>
  </outline>
</glyph>
<glyph name="F" format="2">
  <advance width="4238"/>
  <unicode hex="0046"/>
  <outline>
    <contour>
      <point x="294" y="0" type="line" identifier="oAgH2tA6DJ"/>
      <point x="989" y="0" type="line" identifier="zCZyMcW5ho"/>
      <point x="989" y="487" type="line" identifier="yHYqkMd7LI"/>
      <point x="3766" y="487" type="line" identifier="NmB7yyQuio"/>
      <point x="3766" y="893" type="line" identifier="wQk2C8zPHh"/>
      <point x="989" y="893" type="line" identifier="4cFHKQfHDt"/>
      <point x="989" y="1194" type="line" identifier="ZvzwyrcwpS"/>
      <point x="4071" y="1194" type="line" identifier="4E754ovOIe"/>
      <point x="4071" y="1600" type="line" identifier="NUrIjqOB7J"/>
      <point x="294" y="1600" type="line" identifier="TBAYuCfUFX"/>
    </contour>
  </outline>
</glyph>
<glyph name="M" format="2">
  <advance width="6112"/>
  <unicode hex="004D"/>
  <outline>
    <contour>
      <point x="2535" y="34" type="line" identifier="0Dn4Xpf57M"/>
      <point x="1394" y="1194" type="line"/>
      <point x="1071" y="1194" type="line"/>
      <point x="1071" y="0" type="line"/>
      <point x="381" y="0" type="line"/>
      <point x="381" y="1600" type="line"/>
      <point x="1833" y="1600" type="line"/>
      <point x="2897" y="508" type="line"/>
      <point x="3214" y="508" type="line" identifier="9aKZPM0HPh"/>
      <point x="4277" y="1600" type="line"/>
      <point x="5731" y="1600" type="line"/>
      <point x="5731" y="0" type="line"/>
      <point x="5041" y="0" type="line"/>
      <point x="5041" y="1194" type="line"/>
      <point x="4718" y="1194" type="line"/>
      <point x="3577" y="34" type="line" identifier="spdoeeCFft"/>
    </contour>
  </outline>
</glyph>
<glyph name="O" format="2">
  <advance width="4620"/>
  <unicode hex="004F"/>
  <outline>
    <contour>
      <point x="4461" y="503" type="line" identifier="ob8US3C311"/>
      <point x="4461" y="1600" type="line" identifier="c9brEFyXXA"/>
      <point x="602" y="1600" type="line" identifier="a4Ql951bxG"/>
      <point x="159" y="1097" type="line" identifier="kbL68Qh2zr"/>
      <point x="159" y="0" type="line" identifier="U6WibAQAUl"/>
      <point x="4017" y="0" type="line" identifier="dfgNHTgBfR"/>
    </contour>
    <contour>
      <point x="3766" y="640" type="line" identifier="SnrsQD5TLy"/>
      <point x="3544" y="406" type="line" identifier="jjd5iRDXWT"/>
      <point x="854" y="406" type="line" identifier="YbQKHpAtYn"/>
      <point x="854" y="957" type="line" identifier="vdfGLkskOQ"/>
      <point x="1069" y="1194" type="line" identifier="qXlVxK5ShE"/>
      <point x="3766" y="1194" type="line" identifier="g70r2r6DwY"/>
    </contour>
  </outline>
</glyph>
<glyph name="Q" format="2">
  <advance width="4811"/>
  <unicode hex="0051"/>
  <outline>
    <contour>
      <point x="4499" y="1600" type="line" identifier="c9brEFyXXA"/>
      <point x="644" y="1600" type="line" identifier="a4Ql951bxG"/>
      <point x="201" y="1098" type="line" identifier="kbL68Qh2zr"/>
      <point x="201" y="1" type="line" identifier="U6WibAQAUl"/>
      <point x="4499" y="1" type="line" identifier="dfgNHTgBfR"/>
    </contour>
    <contour>
      <point x="3804" y="407" type="line" identifier="jjd5iRDXWT"/>
      <point x="896" y="407" type="line" identifier="YbQKHpAtYn"/>
      <point x="896" y="957" type="line" identifier="vdfGLkskOQ"/>
      <point x="1110" y="1194" type="line" identifier="qXlVxK5ShE"/>
      <point x="3804" y="1194" type="line" identifier="g70r2r6DwY"/>
    </contour>
    <contour>
      <point x="2096" y="-201" type="line"/>
      <point x="2714" y="-201" type="line"/>
      <point x="2714" y="2" type="line"/>
      <point x="2096" y="2" type="line"/>
    </contour>
  </outline>
</glyph>
<glyph name="S" format="2">
  <advance width="4597"/>
  <unicode hex="0053"/>
  <outline>
    <contour>
      <point x="267" y="0" type="line" identifier="09VlJ0BjUX"/>
      <point x="3887" y="0" type="line" identifier="EagWihqFM8"/>
      <point x="4331" y="501" type="line"/>
      <point x="4331" y="995" type="line" identifier="KfNuQA7eZe"/>
      <point x="963" y="995" type="line" identifier="At364YZFEy"/>
      <point x="963" y="954" type="line"/>
      <point x="1203" y="1219" type="line"/>
      <point x="4337" y="1219" type="line" identifier="3ZUkG35meB"/>
      <point x="4337" y="1600" type="line" identifier="SaF9ojRFrW"/>
      <point x="710" y="1600" type="line"/>
      <point x="269" y="1095" type="line"/>
      <point x="269" y="630" type="line" identifier="3sQ8t8BZ6b"/>
      <point x="3636" y="630" type="line" identifier="yiV6OCBLHg"/>
      <point x="3636" y="639" type="line"/>
      <point x="3387" y="382" type="line" identifier="9kdl9SYsn8"/>
      <point x="267" y="382" type="line" identifier="yZDWuX8LLe"/>
    </contour>
  </outline>
</glyph>
<glyph name="U" format="2">
  <advance width="4381"/>
  <unicode hex="0055"/>
  <outline>
    <contour>
      <point x="156" y="0" type="line" smooth="yes"/>
      <point x="4086" y="0" type="line" smooth="yes"/>
      <point x="4086" y="1600" type="line" smooth="yes"/>
      <point x="3391" y="1600" type="line" smooth="yes"/>
      <point x="3391" y="406" type="line"/>
      <point x="851" y="406" type="line" smooth="yes"/>
      <point x="851" y="1600" type="line"/>
      <point x="156" y="1600" type="line" smooth="yes"/>
    </contour>
  </outline>
</glyph>
<glyph name="X" format="2">
  <advance width="4532"/>
  <unicode hex="0058"/>
  <outline>
    <contour>
      <point x="3354" y="582" type="line"/>
      <point x="3679" y="360" type="line"/>
      <point x="3679" y="0" type="line"/>
      <point x="4374" y="0" type="line"/>
      <point x="4374" y="547" type="line"/>
      <point x="4011" y="779" type="line"/>
      <point x="4011" y="782" type="line"/>
      <point x="4370" y="782" type="line"/>
      <point x="4370" y="1600" type="line"/>
      <point x="3676" y="1600" type="line"/>
      <point x="3676" y="988" type="line"/>
      <point x="3419" y="988" type="line"/>
      <point x="1112" y="988" type="line"/>
      <point x="857" y="1144" type="line"/>
      <point x="857" y="1600" type="line"/>
      <point x="162" y="1600" type="line"/>
      <point x="162" y="985" type="line"/>
      <point x="523" y="781" type="line"/>
      <point x="523" y="778" type="line"/>
      <point x="159" y="778" type="line"/>
      <point x="159" y="0" type="line"/>
      <point x="853" y="0" type="line"/>
      <point x="853" y="582" type="line"/>
      <point x="1177" y="582" type="line"/>
    </contour>
  </outline>
</glyph>
<glyph name="Y" format="2">
  <advance width="4786"/>
  <unicode hex="0059"/>
  <outline>
    <contour>
      <point x="329" y="0" type="line"/>
      <point x="4473" y="0" type="line" identifier="oOtn61SmRY"/>
      <point x="4473" y="1600" type="line" identifier="8OglXgblhr"/>
      <point x="3777" y="1600" type="line" identifier="db0bPhBdaU"/>
      <point x="3777" y="1052" type="line" identifier="MTAeavIVWY"/>
      <point x="1008" y="1052" type="line" identifier="lggLiivmLt"/>
      <point x="1008" y="1600" type="line" identifier="UPaHY3UudR"/>
      <point x="314" y="1600" type="line" identifier="ZnCDQVdtyD"/>
      <point x="314" y="668" type="line" identifier="uqAJBjDIOT"/>
      <point x="3777" y="668" type="line" identifier="7JgTtdb0jg"/>
      <point x="3777" y="383" type="line"/>
      <point x="329" y="383" type="line"/>
    </contour>
  </outline>
</glyph>
<glyph name="Z" format="2">
  <advance width="4324"/>
  <unicode hex="005A"/>
  <outline>
    <contour>
      <point x="170" y="0" type="line"/>
      <point x="4154" y="0" type="line" identifier="pzdvPTirLJ"/>
      <point x="4154" y="635" type="line" identifier="91SxUS0iwG"/>
      <point x="3459" y="635" type="line"/>
      <point x="3459" y="377" type="line"/>
      <point x="865" y="377" type="line"/>
      <point x="865" y="469" type="line"/>
      <point x="4137" y="1003" type="line" identifier="yyb1NCCI5w"/>
      <point x="4137" y="1600" type="line" identifier="5FogYRSgkk"/>
      <point x="187" y="1600" type="line" identifier="svlFvrau4c"/>
      <point x="187" y="1033" type="line" identifier="LQ9fBsTy9K"/>
      <point x="877" y="1033" type="line"/>
      <point x="877" y="1223" type="line"/>
      <point x="3442" y="1223" type="line"/>
      <point x="3442" y="1231" type="line"/>
      <point x="170" y="752" type="line" identifier="teVKnpBcVb"/>
    </contour>
  </outline>
</glyph>
<glyph name="C.wide" format="2">
  <advance width="4380"/>
  <outline>
    <contour>
      <point x="160" y="0" type="line" identifier="7lPhzTnk2Z"/>
      <point x="4209" y="0" type="line" identifier="qJVLZGnkwh"/>
      <point x="4209" y="646" type="line" identifier="nDnDHzAMXL"/>
      <point x="3513" y="646" type="line" identifier="QX1V08aTu0"/>
      <point x="3513" y="406" type="line" identifier="Y750RHTvDj"/>
      <point x="855" y="406" type="line" identifier="L2LsGnXiZ2"/>
      <point x="855" y="949" type="line" identifier="sUWsr03vF4"/>
      <point x="1071" y="1194" type="line" identifier="dbOUe6OhxL"/>
      <point x="3514" y="1194" type="line" identifier="5BjRbcud80"/>
      <point x="3514" y="938" type="line" identifier="fNVDqwQo2o"/>
      <point x="4210" y="938" type="line" identifier="wLqQQx7QVN"/>
      <point x="4210" y="1600" type="line" identifier="9eJelv8BOw"/>
      <point x="604" y="1600" type="line" identifier="lfZev3ICaC"/>
      <point x="160" y="1097" type="line" identifier="V1EWIdPahq"/>
    </contour>
  </outline>
</glyph>
<glyph name="E.wide" format="2">
  <advance width="4455"/>
  <outline>
    <contour>
      <point x="377" y="0" type="line" identifier="fZynkQ4XHB"/>
      <point x="4079" y="0" type="line" identifier="FAQNpgUPxV"/>
      <point x="4079" y="626" type="line" identifier="gHI0YjrPxR"/>
      <point x="3389" y="626" type="line" identifier="gxCIuXb4el"/>
      <point x="3389" y="377" type="line" identifier="5cgTYOhATF"/>
      <point x="1072" y="377" type="line" identifier="bWs42DaCgU"/>
      <point x="1072" y="612" type="line" identifier="VtD2aADJmn"/>
      <point x="3073" y="612" type="line" identifier="PpbsFdHAnS"/>
      <point x="3073" y="988" type="line" identifier="8WuC5p8Ax5"/>
      <point x="1072" y="988" type="line" identifier="m39IWn9ntA"/>
      <point x="1072" y="1223" type="line" identifier="gQ21I4SHQg"/>
      <point x="3388" y="1223" type="line" identifier="eqNb2VTwYs"/>
      <point x="3388" y="950" type="line" identifier="mLmcFoJA4m"/>
      <point x="4078" y="950" type="line" identifier="e79n7CoPy1"/>
      <point x="4078" y="1600" type="line" identifier="qYRmo14Il5"/>
      <point x="377" y="1600" type="line" identifier="HmJIcnLWfC"/>
    </contour>
  </outline>
</glyph>
<glyph name="F.wide" format="2">
  <advance width="4599"/>
  <outline>
    <contour>
      <point x="312" y="0" type="line" identifier="oAgH2tA6DJ"/>
      <point x="1007" y="0" type="line" identifier="zCZyMcW5ho"/>
      <point x="1007" y="500" type="line" identifier="yHYqkMd7LI"/>
      <point x="3003" y="500" type="line" identifier="NmB7yyQuio"/>
      <point x="3003" y="905" type="line" identifier="wQk2C8zPHh"/>
      <point x="1007" y="905" type="line" identifier="4cFHKQfHDt"/>
      <point x="1007" y="1194" type="line" identifier="ZvzwyrcwpS"/>
      <point x="3593" y="1194" type="line" identifier="4E754ovOIe"/>
      <point x="3593" y="877" type="line" identifier="vZkeT9KrKR"/>
      <point x="4288" y="877" type="line" identifier="0tk7G4orz6"/>
      <point x="4288" y="1600" type="line" identifier="NUrIjqOB7J"/>
      <point x="312" y="1600" type="line" identifier="TBAYuCfUFX"/>
    </contour>
  </outline>
</glyph>
<glyph name="G.wide" format="2">
  <advance width="4580"/>
  <outline>
    <contour>
      <point x="201" y="0" type="line" identifier="7lPhzTnk2Z"/>
      <point x="4377" y="0" type="line" identifier="qJVLZGnkwh"/>
      <point x="4377" y="985" type="line" identifier="uek1NNj7De"/>
      <point x="2711" y="985" type="line" identifier="qcvimxjndX"/>
      <point x="2711" y="607" type="line" identifier="EARaY3Su65"/>
      <point x="3682" y="607" type="line" identifier="4m6dHLVhZq"/>
      <point x="3682" y="377" type="line" identifier="Y750RHTvDj"/>
      <point x="895" y="377" type="line" identifier="L2LsGnXiZ2"/>
      <point x="895" y="978" type="line" identifier="sUWsr03vF4"/>
      <point x="1136" y="1223" type="line" identifier="dbOUe6OhxL"/>
      <point x="3684" y="1223" type="line" identifier="5BjRbcud80"/>
      <point x="3684" y="1080" type="line" identifier="fNVDqwQo2o"/>
      <point x="4378" y="1080" type="line" identifier="wLqQQx7QVN"/>
      <point x="4378" y="1600" type="line" identifier="9eJelv8BOw"/>
      <point x="654" y="1600" type="line" identifier="lfZev3ICaC"/>
      <point x="201" y="1123" type="line" identifier="V1EWIdPahq"/>
    </contour>
  </outline>
</glyph>
<glyph name="M.narrow" format="2">
  <advance width="6052"/>
  <outline>
    <contour>
      <point x="5195" y="0" type="line" smooth="yes" identifier="12Pyby1xY2"/>
      <point x="5890" y="0" type="line" smooth="yes" identifier="5LJg4ajoG6"/>
      <point x="5890" y="1599" type="line" smooth="yes" identifier="ZqTZqAY3uY"/>
      <point x="752" y="1599" type="line" smooth="yes" identifier="R4lklfJsHA"/>
      <point x="300" y="1120" type="line" smooth="yes" identifier="7g7f8Wu7K4"/>
      <point x="300" y="0" type="line" smooth="yes" identifier="RTOJW56qXy"/>
      <point x="995" y="0" type="line" identifier="JfSFAkWGZC"/>
      <point x="995" y="904" type="line" smooth="yes" identifier="WWvGwSpq0g"/>
      <point x="1283" y="1194" type="line" smooth="yes" identifier="oee4nqI8Wl"/>
      <point x="2746" y="1194" type="line" identifier="Ljn2lpvpG8"/>
      <point x="2746" y="66" type="line" smooth="yes"/>
      <point x="3441" y="66" type="line"/>
      <point x="3441" y="1194" type="line" identifier="GlWB6PG54Z"/>
      <point x="5195" y="1194" type="line" identifier="iqeTRv7HXg"/>
    </contour>
  </outline>
</glyph>
<glyph name="N.wide" format="2">
  <advance width="4322"/>
  <outline>
    <contour>
      <point x="375" y="0" type="line" identifier="CkwYPPvJLv"/>
      <point x="1070" y="0" type="line" identifier="oHTJsN7drZ"/>
      <point x="1070" y="1182" type="line" identifier="wfBbYd10Pm"/>
      <point x="1255" y="1182" type="line" identifier="MEnBDHq6zU"/>
      <point x="3511" y="0" type="line" identifier="3Nbopwznvn"/>
      <point x="4582" y="0" type="line" identifier="uKfuudIUvA"/>
      <point x="4582" y="1600" type="line" identifier="XRdLFXiM4t"/>
      <point x="3887" y="1600" type="line" identifier="MUSJPjCIXg"/>
      <point x="3887" y="421" type="line" identifier="VILP20cFmq"/>
      <point x="3701" y="421" type="line" identifier="z5b04GDwRN"/>
      <point x="1448" y="1600" type="line" identifier="LL64NQ6WBE"/>
      <point x="375" y="1600" type="line" identifier="dzUaaP1sjt"/>
    </contour>
  </outline>
</glyph>
<glyph name="P.wide" format="2">
  <advance width="4501"/>
  <outline>
    <contour>
      <point x="250" y="0" type="line" identifier="EG08jqU5fb"/>
      <point x="945" y="0" type="line" identifier="osRzIFK2Cu"/>
      <point x="945" y="449" type="line" identifier="hIFVovVRwe"/>
      <point x="4222" y="449" type="line" identifier="Tt6D8zYZmU"/>
      <point x="4222" y="1600" type="line" identifier="6xW04auDFu"/>
      <point x="250" y="1600" type="line" identifier="eETO5GBD5v"/>
    </contour>
    <contour>
      <point x="945" y="860" type="line" identifier="PIBVN1PGv1"/>
      <point x="945" y="1194" type="line" identifier="IZIZQr2gYJ"/>
      <point x="3528" y="1194" type="line" identifier="2c4LCF1E1R"/>
      <point x="3528" y="860" type="line" identifier="1WCnzth1GX"/>
    </contour>
  </outline>
</glyph>
<glyph name="R.wide" format="2">
  <advance width="4362"/>
  <outline>
    <contour>
      <point x="3441" y="0" type="line"/>
      <point x="4136" y="0" type="line"/>
      <point x="4136" y="322" type="line"/>
      <point x="3737" y="411" type="line"/>
      <point x="3010" y="385" type="line"/>
      <point x="3441" y="250" type="line"/>
    </contour>
    <contour>
      <point x="297" y="-1" type="line" identifier="EG08jqU5fb"/>
      <point x="991" y="-1" type="line" identifier="osRzIFK2Cu"/>
      <point x="991" y="376" type="line" identifier="hIFVovVRwe"/>
      <point x="4202" y="376" type="line" identifier="Tt6D8zYZmU"/>
      <point x="4202" y="1599" type="line" identifier="6xW04auDFu"/>
      <point x="297" y="1599" type="line" identifier="eETO5GBD5v"/>
    </contour>
    <contour>
      <point x="991" y="781" type="line" identifier="PIBVN1PGv1"/>
      <point x="991" y="1193" type="line" identifier="IZIZQr2gYJ"/>
      <point x="3507" y="1193" type="line" identifier="2c4LCF1E1R"/>
      <point x="3507" y="781" type="line" identifier="1WCnzth1GX"/>
    </contour>
  </outline>
</glyph>
<glyph name="S.wide" format="2">
  <advance width="4329"/>
  <outline>
    <contour>
      <point x="171" y="0" type="line" identifier="09VlJ0BjUX"/>
      <point x="3713" y="0" type="line" identifier="EagWihqFM8"/>
      <point x="4158" y="498" type="line"/>
      <point x="4159" y="989" type="line" identifier="KfNuQA7eZe"/>
      <point x="866" y="989" type="line" identifier="At364YZFEy"/>
      <point x="866" y="954" type="line"/>
      <point x="1106" y="1219" type="line"/>
      <point x="3468" y="1219" type="line" identifier="3ZUkG35meB"/>
      <point x="3468" y="1080" type="line" identifier="DTOJhFIl15"/>
      <point x="4163" y="1080" type="line" identifier="9KDcrfQ5Ui"/>
      <point x="4163" y="1600" type="line" identifier="SaF9ojRFrW"/>
      <point x="614" y="1600" type="line"/>
      <point x="172" y="1095" type="line"/>
      <point x="172" y="624" type="line" identifier="3sQ8t8BZ6b"/>
      <point x="3463" y="624" type="line" identifier="yiV6OCBLHg"/>
      <point x="3463" y="639" type="line"/>
      <point x="3214" y="382" type="line" identifier="9kdl9SYsn8"/>
      <point x="866" y="382" type="line" identifier="yZDWuX8LLe"/>
      <point x="866" y="505" type="line" identifier="jYb9001DTm"/>
      <point x="171" y="505" type="line" identifier="ho4DrS0rdW"/>
    </contour>
  </outline>
</glyph>
<glyph name="U.alt" format="2">
  <advance width="4445"/>
  <outline>
    <contour>
      <point x="3522" y="1600" type="line" smooth="yes"/>
      <point x="3522" y="406" type="line"/>
      <point x="919" y="406" type="line" smooth="yes"/>
      <point x="919" y="1600" type="line"/>
      <point x="223" y="1600" type="line" smooth="yes"/>
      <point x="223" y="0" type="line" smooth="yes"/>
      <point x="4217" y="0" type="line" smooth="yes"/>
      <point x="4217" y="1600" type="line" smooth="yes"/>
    </contour>
  </outline>
</glyph>
<glyph name="Y.wide" format="2">
  <advance width="4715"/>
  <outline>
    <contour>
      <point x="297" y="0" type="line"/>
      <point x="4420" y="0" type="line" identifier="oOtn61SmRY"/>
      <point x="4420" y="1600" type="line" identifier="8OglXgblhr"/>
      <point x="3725" y="1600" type="line" identifier="db0bPhBdaU"/>
      <point x="3725" y="1058" type="line" identifier="MTAeavIVWY"/>
      <point x="990" y="1058" type="line" identifier="lggLiivmLt"/>
      <point x="990" y="1600" type="line" identifier="UPaHY3UudR"/>
      <point x="295" y="1600" type="line" identifier="ZnCDQVdtyD"/>
      <point x="295" y="681" type="line" identifier="uqAJBjDIOT"/>
      <point x="3725" y="681" type="line" identifier="7JgTtdb0jg"/>
      <point x="3725" y="377" type="line"/>
      <point x="992" y="377" type="line"/>
      <point x="991" y="518" type="line"/>
      <point x="297" y="518" type="line"/>
    </contour>
  </outline>
</glyph>
<glyph name="Z.wide" format="2">
  <advance width="4581"/>
  <outline>
    <contour>
      <point x="260" y="0" type="line"/>
      <point x="4313" y="0" type="line" identifier="pzdvPTirLJ"/>
      <point x="4313" y="376" type="line"/>
      <point x="1031" y="376" type="line"/>
      <point x="1031" y="453" type="line"/>
      <point x="4312" y="900" type="line" identifier="yyb1NCCI5w"/>
      <point x="4312" y="1600" type="line" identifier="5FogYRSgkk"/>
      <point x="284" y="1600" type="line" identifier="svlFvrau4c"/>
      <point x="284" y="1223" type="line"/>
      <point x="3459" y="1223" type="line"/>
      <point x="3459" y="1209" type="line"/>
      <point x="260" y="771" type="line" identifier="teVKnpBcVb"/>
    </contour>
  </outline>
</glyph>
<glyph name="nine.wide" format="2">
  <advance width="4752"/>
  <outline>
    <contour>
      <point x="4486" y="1602" type="line" identifier="uiw6aBUf4P"/>
      <point x="267" y="1602" type="line" identifier="jtYkxiUX6G"/>
      <point x="267" y="622" type="line" identifier="2G5L37c87I"/>
      <point x="3791" y="622" type="line"/>
      <point x="3791" y="385" type="line"/>
      <point x="962" y="385" type="line"/>
      <point x="962" y="508" type="line"/>
      <point x="268" y="508" type="line" identifier="Wuidbv6mUe"/>
      <point x="268" y="2" type="line" identifier="oGvEEuxnYv"/>
      <point x="4486" y="2" type="line" identifier="xR3pEHbMJx"/>
    </contour>
    <contour>
      <point x="962" y="985" type="line"/>
      <point x="962" y="1219" type="line"/>
      <point x="3791" y="1219" type="line"/>
      <point x="3791" y="985" type="line"/>
    </contour>
  </outline>
</glyph>
<glyph name="one.narrow" format="2">
  <advance width="2884"/>
  <outline>
    <contour>
      <point x="2570" y="0" type="line" identifier="5nmxQXofSG"/>
      <point x="2570" y="1600" type="line" identifier="4rjIeWbSbx"/>
      <point x="203" y="1600" type="line"/>
      <point x="203" y="1194" type="line"/>
      <point x="1875" y="1194" type="line"/>
      <point x="1875" y="0" type="line"/>
    </contour>
  </outline>
</glyph>
<glyph name="seven.alt" format="2">
  <advance width="4069"/>
  <outline>
    <contour>
      <point x="244" y="1600" type="line" identifier="jiO9eX9U07"/>
      <point x="3922" y="1600" type="line" identifier="wgpFs1yguc"/>
      <point x="3922" y="0" type="line" identifier="d5Di3vNzni"/>
      <point x="3227" y="0" type="line" identifier="46RrD1WET2"/>
      <point x="3227" y="1194" type="line" identifier="zFXsE8BUYG"/>
      <point x="889" y="1194" type="line" identifier="NQmE31PUns"/>
      <point x="889" y="725" type="line" identifier="qiXxY6YhCq"/>
      <point x="244" y="725" type="line" identifier="7exNZv1XSc"/>
    </contour>
  </outline>
</glyph>
<glyph name="six.wide" format="2">
  <advance width="4617"/>
  <outline>
    <contour>
      <point x="202" y="0" type="line" identifier="uiw6aBUf4P"/>
      <point x="4416" y="0" type="line" identifier="jtYkxiUX6G"/>
      <point x="4416" y="985" type="line" identifier="2G5L37c87I"/>
      <point x="896" y="985" type="line"/>
      <point x="896" y="1054" type="line"/>
      <point x="1127" y="1223" type="line"/>
      <point x="3720" y="1223" type="line"/>
      <point x="3720" y="1057" type="line"/>
      <point x="4415" y="1057" type="line" identifier="Wuidbv6mUe"/>
      <point x="4415" y="1600" type="line" identifier="oGvEEuxnYv"/>
      <point x="648" y="1600" type="line" identifier="xR3pEHbMJx"/>
      <point x="202" y="1215" type="line" identifier="KnMArb0tv8"/>
    </contour>
    <contour>
      <point x="3720" y="608" type="line"/>
      <point x="3720" y="377" type="line"/>
      <point x="896" y="377" type="line"/>
      <point x="896" y="608" type="line"/>
    </contour>
  </outline>
</glyph>
<glyph name="three.wide" format="2">
  <advance width="4815"/>
  <outline>
    <contour>
      <point x="266" y="0" type="line" identifier="O9abUc1nmN"/>
      <point x="4549" y="0" type="line" identifier="kMJYMTfXCq"/>
      <point x="4549" y="966" type="line" identifier="su2XmdS8e8"/>
      <point x="4245" y="966" type="line" identifier="JQaOzDQqlF"/>
      <point x="4245" y="1600" type="line" identifier="xg8x2Ki40p"/>
      <point x="303" y="1600" type="line" identifier="pE1XSRiy68"/>
      <point x="303" y="946" type="line" identifier="5lNstGRcSF"/>
      <point x="999" y="946" type="line" identifier="AcE5xKDZfE"/>
      <point x="999" y="1223" type="line" identifier="7ogBYufWpl"/>
      <point x="3549" y="1223" type="line" identifier="RHLvSX2Jv6"/>
      <point x="3549" y="966" type="line" identifier="iic1IBkDqp"/>
      <point x="1474" y="966" type="line" identifier="lRLJEhXMlO"/>
      <point x="1474" y="629" type="line" identifier="8aKgEELrVU"/>
      <point x="3854" y="629" type="line" identifier="Dm8zjmbhNr"/>
      <point x="3854" y="377" type="line" identifier="xv9CFHiFgB"/>
      <point x="962" y="377" type="line" identifier="YajKQV3MHP"/>
      <point x="962" y="656" type="line" identifier="36SchVkwze"/>
      <point x="266" y="656" type="line" identifier="tVui9PiOjA"/>
    </contour>
  </outline>
</glyph>
<glyph name="two.wide" format="2">
  <advance width="4478"/>
  <outline>
    <contour>
      <point x="201" y="0" type="line"/>
      <point x="4276" y="0" type="line" identifier="pzdvPTirLJ"/>
      <point x="4276" y="544" type="line"/>
      <point x="3580" y="544" type="line"/>
      <point x="3580" y="377" type="line"/>
      <point x="898" y="377" type="line"/>
      <point x="898" y="642" type="line"/>
      <point x="4275" y="642" type="line" identifier="yyb1NCCI5w"/>
      <point x="4275" y="1600" type="line" identifier="5FogYRSgkk"/>
      <point x="204" y="1600" type="line" identifier="svlFvrau4c"/>
      <point x="204" y="1028" type="line" identifier="LQ9fBsTy9K"/>
      <point x="900" y="1028" type="line"/>
      <point x="900" y="1224" type="line"/>
      <point x="3580" y="1224" type="line"/>
      <point x="3580" y="948" type="line"/>
      <point x="201" y="948" type="line" identifier="teVKnpBcVb"/>
    </contour>
  </outline>
</glyph>
